<svg width="32" height="32" viewBox="0 0 32 32" fill="none" xmlns="http://www.w3.org/2000/svg">
<g clip-path="url(#clip0_1138_84505)">
<path d="M31.24 25.91H29.72V22.86H28.19V19.81H26.67V16.77H25.15V15.24H11.43V16.77H9.91V19.81H8.38V22.86H6.86V25.91H5.34V28.96H16V32H17.53V28.96H19.05V32H20.57V28.96H31.24V25.91ZM28.19 27.43H8.38V24.38H9.91V21.34H11.43V19.81H12.96V16.77H23.62V19.81H25.15V21.34H26.67V24.38H28.19V27.43Z" fill="#000001"/>
<path d="M25.15 22.86H19.05V25.91H26.67V24.38H25.15V22.86Z" fill="#000001"/>
<path d="M22.1 18.29H19.05V21.34H23.62V19.81H22.1V18.29Z" fill="#000001"/>
<path d="M17.53 7.62H16V9.14999H17.53V7.62Z" fill="#000001"/>
<path d="M16 1.53H14.48V3.05H16V1.53Z" fill="#000001"/>
<path d="M17.53 21.34V18.29H14.48V19.81H12.96V21.34H17.53Z" fill="#000001"/>
<path d="M14.48 6.10001H12.96V10.67H14.48V6.10001Z" fill="#000001"/>
<path d="M12.96 10.67H11.43V12.19H12.96V10.67Z" fill="#000001"/>
<path d="M12.96 4.57001H11.43V6.10001H12.96V4.57001Z" fill="#000001"/>
<path d="M17.53 25.91V22.86H11.43V24.38H9.91V25.91H17.53Z" fill="#000001"/>
<path d="M11.43 12.19H6.86002V13.72H11.43V12.19Z" fill="#000001"/>
<path d="M11.43 3.04999H6.86002V4.56999H11.43V3.04999Z" fill="#000001"/>
<path d="M9.91 0H8.38V1.53H9.91V0Z" fill="#000001"/>
<path d="M6.86 10.67H5.34V12.19H6.86V10.67Z" fill="#000001"/>
<path d="M6.86 4.57001H5.34V6.10001H6.86V4.57001Z" fill="#000001"/>
<path d="M5.34 6.10001H3.81V10.67H5.34V6.10001Z" fill="#000001"/>
<path d="M3.81001 13.72H2.29001V15.24H3.81001V13.72Z" fill="#000001"/>
<path d="M3.81001 1.53H2.29001V3.05H3.81001V1.53Z" fill="#000001"/>
<path d="M2.29001 7.62H0.76001V9.14999H2.29001V7.62Z" fill="#000001"/>
</g>
<defs>
<clipPath id="clip0_1138_84505">
<rect width="32" height="32" fill="white"/>
</clipPath>
</defs>
</svg>
